<svg xmlns="http://www.w3.org/2000/svg" viewBox="0 0 6.0 6.0">
  <g class="visible" fill="none" stroke="black" stroke-width="1.0">
    <polyline points="2.0,3.0 2.034074173710932,3.2588190451025207"/>
    <polyline points="2.0,3.0 2.034074173710932,3.2588190451025207"/>
    <polyline points="2.0,3.0 2.034074173710932,2.7411809548974793"/>
    <polyline points="2.0,3.0 2.034074173710932,2.7411809548974793"/>
    <polyline points="2.034074173710932,3.2588190451025207 2.133974596215561,3.5"/>
    <polyline points="2.034074173710932,3.2588190451025207 2.133974596215561,3.5"/>
    <polyline points="2.034074173710932,2.7411809548974793 2.133974596215561,2.5"/>
    <polyline points="2.034074173710932,2.7411809548974793 2.133974596215561,2.5"/>
    <polyline points="2.133974596215561,3.5 2.292893218813452,3.707106781186547"/>
    <polyline points="2.133974596215561,3.5 2.292893218813452,3.707106781186547"/>
    <polyline points="2.133974596215561,2.5 2.2928932188134525,2.2928932188134525"/>
    <polyline points="2.133974596215561,2.5 2.2928932188134525,2.2928932188134525"/>
    <polyline points="2.292893218813452,3.707106781186547 2.4999999999999996,3.8660254037844384"/>
    <polyline points="2.292893218813452,3.707106781186547 2.4999999999999996,3.8660254037844384"/>
    <polyline points="2.2928932188134525,2.2928932188134525 2.5,2.133974596215561"/>
    <polyline points="2.2928932188134525,2.2928932188134525 2.5,2.133974596215561"/>
    <polyline points="2.4999999999999996,3.8660254037844384 2.7411809548974793,3.965925826289068"/>
    <polyline points="2.4999999999999996,3.8660254037844384 2.7411809548974793,3.965925826289068"/>
    <polyline points="2.5,2.133974596215561 2.7411809548974793,2.034074173710932"/>
    <polyline points="2.5,2.133974596215561 2.7411809548974793,2.034074173710932"/>
    <polyline points="2.7411809548974793,3.965925826289068 3.0,4.0"/>
    <polyline points="2.7411809548974793,3.965925826289068 3.0,4.0"/>
    <polyline points="2.7411809548974793,2.034074173710932 3.0,2.0"/>
    <polyline points="2.7411809548974793,2.034074173710932 3.0,2.0"/>
    <polyline points="3.0,4.0 3.2588190451025203,3.9659258262890686"/>
    <polyline points="3.0,4.0 3.2588190451025203,3.9659258262890686"/>
    <polyline points="3.0,2.0 3.2588190451025207,2.034074173710932"/>
    <polyline points="3.0,2.0 3.2588190451025207,2.034074173710932"/>
    <polyline points="3.2588190451025203,3.9659258262890686 3.5,3.8660254037844384"/>
    <polyline points="3.2588190451025203,3.9659258262890686 3.5,3.8660254037844384"/>
    <polyline points="3.2588190451025207,2.034074173710932 3.5,2.1339745962155616"/>
    <polyline points="3.2588190451025207,2.034074173710932 3.5,2.1339745962155616"/>
    <polyline points="3.5,3.8660254037844384 3.7071067811865475,3.707106781186548"/>
    <polyline points="3.5,3.8660254037844384 3.7071067811865475,3.707106781186548"/>
    <polyline points="3.5,2.1339745962155616 3.7071067811865475,2.2928932188134525"/>
    <polyline points="3.5,2.1339745962155616 3.7071067811865475,2.2928932188134525"/>
    <polyline points="3.7071067811865475,3.707106781186548 3.8660254037844384,3.5000000000000004"/>
    <polyline points="3.7071067811865475,3.707106781186548 3.8660254037844384,3.5000000000000004"/>
    <polyline points="3.7071067811865475,2.2928932188134525 3.866025403784439,2.5"/>
    <polyline points="3.7071067811865475,2.2928932188134525 3.866025403784439,2.5"/>
    <polyline points="3.8660254037844384,3.5000000000000004 3.965925826289068,3.2588190451025216"/>
    <polyline points="3.8660254037844384,3.5000000000000004 3.965925826289068,3.2588190451025216"/>
    <polyline points="3.866025403784439,2.5 3.965925826289068,2.7411809548974793"/>
    <polyline points="3.866025403784439,2.5 3.965925826289068,2.7411809548974793"/>
    <polyline points="3.965925826289068,3.2588190451025216 4.0,3.0"/>
    <polyline points="3.965925826289068,3.2588190451025216 4.0,3.0"/>
    <polyline points="3.965925826289068,2.7411809548974793 4.0,3.0"/>
    <polyline points="3.965925826289068,2.7411809548974793 4.0,3.0"/>
  </g>
</svg>
