<svg xmlns="http://www.w3.org/2000/svg" viewBox="0 0 6.0 6.787693700234704">
  <g class="visible" fill="none" stroke="black" stroke-width="1.0">
    <polyline points="2.0,4.210343431045078 2.0,2.5773502691896257"/>
    <polyline points="2.0,4.210343431045078 2.0340741737109314,4.35977267640642"/>
    <polyline points="2.0,4.210343431045078 2.034074173710932,4.060914185683735"/>
    <polyline points="2.0,2.5773502691896257 2.0340741737109314,2.7267795145509677"/>
    <polyline points="2.0,2.5773502691896257 2.034074173710932,2.427921023828284"/>
    <polyline points="2.0340741737109314,4.35977267640642 2.1339745962155616,4.499018565639892"/>
    <polyline points="2.0340741737109314,2.7267795145509677 2.1339745962155616,2.866025403784439"/>
    <polyline points="2.034074173710932,4.060914185683735 2.133974596215561,3.9216682964502656"/>
    <polyline points="2.034074173710932,2.427921023828284 2.133974596215561,2.288675134594813"/>
    <polyline points="2.133974596215561,3.9216682964502656 2.2928932188134525,3.802095140581215"/>
    <polyline points="2.133974596215561,2.288675134594813 2.2928932188134525,2.1691019787257626"/>
    <polyline points="2.1339745962155616,4.499018565639892 2.292893218813452,4.618591721508942"/>
    <polyline points="2.1339745962155616,2.866025403784439 2.292893218813452,2.985598559653489"/>
    <polyline points="2.292893218813452,4.618591721508942 2.4999999999999996,4.710343431045079"/>
    <polyline points="2.292893218813452,2.985598559653489 2.4999999999999996,3.077350269189626"/>
    <polyline points="2.2928932188134525,3.802095140581215 2.5,3.710343431045078"/>
    <polyline points="2.2928932188134525,2.1691019787257626 2.5,2.0773502691896257"/>
    <polyline points="2.4999999999999996,4.710343431045079 2.7411809548974793,4.768020966870283"/>
    <polyline points="2.4999999999999996,3.077350269189626 2.7411809548974793,3.1350278050148312"/>
    <polyline points="2.5,3.710343431045078 2.7411809548974793,3.652665895219873"/>
    <polyline points="2.5,2.0773502691896257 2.7411809548974793,2.0196727333644207"/>
    <polyline points="2.7411809548974793,3.652665895219873 3.0,3.6329931618554525"/>
    <polyline points="2.7411809548974793,2.0196727333644207 3.0,2.0"/>
    <polyline points="2.7411809548974793,4.768020966870283 3.0,4.787693700234704"/>
    <polyline points="2.7411809548974793,3.1350278050148312 3.0,3.154700538379252"/>
    <polyline points="3.0,4.787693700234704 3.2588190451025203,4.768020966870283"/>
    <polyline points="3.0,3.154700538379252 3.2588190451025203,3.1350278050148312"/>
    <polyline points="3.0,3.6329931618554525 3.2588190451025207,3.652665895219873"/>
    <polyline points="3.0,2.0 3.2588190451025207,2.0196727333644207"/>
    <polyline points="3.2588190451025203,4.768020966870283 3.499999999999999,4.710343431045079"/>
    <polyline points="3.2588190451025203,3.1350278050148312 3.499999999999999,3.077350269189626"/>
    <polyline points="3.2588190451025207,3.652665895219873 3.5,3.7103434310450782"/>
    <polyline points="3.2588190451025207,2.0196727333644207 3.5,2.0773502691896257"/>
    <polyline points="3.499999999999999,4.710343431045079 3.7071067811865475,4.618591721508942"/>
    <polyline points="3.499999999999999,3.077350269189626 3.7071067811865475,2.9855985596534893"/>
    <polyline points="3.5,3.7103434310450782 3.7071067811865475,3.802095140581215"/>
    <polyline points="3.5,2.0773502691896257 3.7071067811865475,2.169101978725763"/>
    <polyline points="3.7071067811865475,4.618591721508942 3.866025403784439,4.499018565639892"/>
    <polyline points="3.7071067811865475,3.802095140581215 3.866025403784439,3.9216682964502656"/>
    <polyline points="3.7071067811865475,2.9855985596534893 3.866025403784439,2.866025403784439"/>
    <polyline points="3.7071067811865475,2.169101978725763 3.866025403784439,2.288675134594813"/>
    <polyline points="3.866025403784439,4.499018565639892 3.965925826289068,4.35977267640642"/>
    <polyline points="3.866025403784439,3.9216682964502656 3.9659258262890686,4.060914185683735"/>
    <polyline points="3.866025403784439,2.866025403784439 3.965925826289068,2.7267795145509686"/>
    <polyline points="3.866025403784439,2.288675134594813 3.9659258262890686,2.427921023828284"/>
    <polyline points="3.965925826289068,4.35977267640642 4.0,4.210343431045079"/>
    <polyline points="3.965925826289068,2.7267795145509686 4.0,2.577350269189626"/>
    <polyline points="3.9659258262890686,4.060914185683735 4.0,4.210343431045079"/>
    <polyline points="3.9659258262890686,2.427921023828284 4.0,2.577350269189626"/>
    <polyline points="4.0,4.210343431045079 4.0,2.577350269189626"/>
  </g>
</svg>
