<svg xmlns="http://www.w3.org/2000/svg" viewBox="0 0 7.889087296526012 7.0618621784789735">
  <g class="visible" fill="none" stroke="black" stroke-width="1.0">
    <polyline points="2.0,4.65361388801511 2.0,3.8371173070873836"/>
    <polyline points="2.0,4.65361388801511 2.7071067811865475,5.0618621784789735"/>
    <polyline points="2.0,3.8371173070873836 2.7071067811865475,4.245365597551247"/>
    <polyline points="2.0,3.8371173070873836 2.7071067811865475,3.428869016623521"/>
    <polyline points="2.7071067811865475,5.0618621784789735 2.7071067811865475,4.245365597551247"/>
    <polyline points="2.7071067811865475,5.0618621784789735 3.414213562373095,4.65361388801511"/>
    <polyline points="2.7071067811865475,4.245365597551247 3.414213562373095,3.8371173070873836"/>
    <polyline points="2.7071067811865475,3.428869016623521 3.414213562373095,3.8371173070873836"/>
    <polyline points="3.414213562373095,4.65361388801511 3.414213562373095,3.8371173070873836"/>
    <polyline points="4.474873734152917,3.2247448713915894 4.474873734152917,2.408248290463863"/>
    <polyline points="4.474873734152917,3.2247448713915894 5.181980515339465,3.6329931618554525"/>
    <polyline points="4.474873734152917,2.408248290463863 5.181980515339465,2.8164965809277263"/>
    <polyline points="4.474873734152917,2.408248290463863 5.181980515339465,2.0"/>
    <polyline points="5.181980515339465,3.6329931618554525 5.181980515339465,2.8164965809277263"/>
    <polyline points="5.181980515339465,3.6329931618554525 5.889087296526012,3.224744871391589"/>
    <polyline points="5.181980515339465,2.8164965809277263 5.889087296526012,2.4082482904638627"/>
    <polyline points="5.181980515339465,2.0 5.889087296526012,2.4082482904638627"/>
    <polyline points="5.889087296526012,3.224744871391589 5.889087296526012,2.4082482904638627"/>
  </g>
  <g class="hidden" fill="none" stroke="black" stroke-width="1.0" stroke-dasharray="4.0 3.0">
    <polyline points="2.0,4.65361388801511 2.7071067811865475,4.245365597551247"/>
    <polyline points="2.7071067811865475,4.245365597551247 2.7071067811865475,3.428869016623521"/>
    <polyline points="2.7071067811865475,4.245365597551247 3.414213562373095,4.65361388801511"/>
    <polyline points="4.474873734152917,3.2247448713915894 5.181980515339465,2.8164965809277263"/>
    <polyline points="5.181980515339465,2.8164965809277263 5.181980515339465,2.0"/>
    <polyline points="5.181980515339465,2.8164965809277263 5.889087296526012,3.224744871391589"/>
  </g>
</svg>
