<svg xmlns="http://www.w3.org/2000/svg" viewBox="0 0 6.0 6.0">
  <g class="visible" fill="none" stroke="black" stroke-width="1.0">
    <polyline points="2.0,3.0 2.0036949736710463,2.9719338885417392"/>
    <polyline points="2.0,3.0 2.0036977466344017,3.028087174206072"/>
    <polyline points="2.0,3.0 2.034074173710932,3.2588190451025207"/>
    <polyline points="2.0,3.0 2.034074173710932,2.7411809548974793"/>
    <polyline points="2.0062322351412205,2.952661474294603 2.0097844011994646,2.9256800943486128"/>
    <polyline points="2.007252685656001,3.055089616899873 2.0097871741628204,3.0743409683991985"/>
    <polyline points="2.013339340221064,3.1013223483451884 2.0168942792426634,3.12832479103899"/>
    <polyline points="2.0136332743367347,2.896445000386837 2.0168915062793085,2.8716962717088212"/>
    <polyline points="2.020732060526512,3.157475634009521 2.023272094960042,3.176769111004468"/>
    <polyline points="2.0207348334898674,2.8425033032426676 2.0232748679233974,2.8232098262477208"/>
    <polyline points="2.0268214880549307,3.2037294282026476 2.0306675882288454,3.232943459416612"/>
    <polyline points="2.0268214880549307,2.7962705717973524 2.03037642707653,2.7692681291035512"/>
    <polyline points="2.034074173710932,3.2588190451025207 2.0420780771904083,3.2781421774345985"/>
    <polyline points="2.034074173710932,3.2588190451025207 2.133974596215561,3.5"/>
    <polyline points="2.034074173710932,2.7411809548974793 2.0427447304004813,2.7202483793442434"/>
    <polyline points="2.034074173710932,2.7411809548974793 2.133974596215561,2.5"/>
    <polyline points="2.0503868525647353,3.2982013356300106 2.058565549263926,3.317946456123733"/>
    <polyline points="2.0503868525647353,2.7017986643699894 2.058565549263926,2.682053543876267"/>
    <polyline points="2.065622317390067,2.665016998559616 2.066646686956765,2.6625439516588116"/>
    <polyline points="2.067687316357855,3.339968349954704 2.0758578831398498,3.359693843092071"/>
    <polyline points="2.0691669612875296,2.6564594711885787 2.0786139250692988,2.6336524831033845"/>
    <polyline points="2.083695123316808,3.3786146146188587 2.0926705519012083,3.4002832160354295"/>
    <polyline points="2.083695123316808,2.6213853853811413 2.092020158525527,2.6012869724730177"/>
    <polyline points="2.098263934932066,3.4137868372080744 2.0999468277916415,3.4178496999736816"/>
    <polyline points="2.1009793272755353,2.5796576257691584 2.1093287522358426,2.5595003307919684"/>
    <polyline points="2.1037678888737683,3.4270745574608084 2.1093287522358426,3.4404996692080316"/>
    <polyline points="2.117653787444562,2.539401917883845 2.1259706927360846,2.5193231323320777"/>
    <polyline points="2.1176700472789536,3.460637336828866 2.123881304016709,3.4756326370845363"/>
    <polyline points="2.133974596215561,3.5 2.1416114326937556,3.5099525190666223"/>
    <polyline points="2.133974596215561,3.5 2.2928932188134534,3.7071067811865466"/>
    <polyline points="2.133974596215561,2.5 2.1414950372182204,2.4901991704703796"/>
    <polyline points="2.133974596215561,2.5 2.2928932188134534,2.2928932188134534"/>
    <polyline points="2.1435384244554,3.512463823623653 2.1464353785131745,3.5162392076556994"/>
    <polyline points="2.1440686705106176,2.486845146263338 2.146590572480555,2.483558539628298"/>
    <polyline points="2.1496168548444796,2.4796146116662494 2.1524750104104085,2.475889790813204"/>
    <polyline points="2.14974618315063,3.520553932263753 2.1528500624982456,3.5245989865838023"/>
    <polyline points="2.16923595888753,3.545953502515065 2.184509631843919,3.5658585406483096"/>
    <polyline points="2.1697274064509022,2.4534060305509273 2.1730640767495886,2.4490575971568735"/>
    <polyline points="2.1777845599240866,2.442905743711798 2.179090775816208,2.441203450018777"/>
    <polyline points="2.186863407015861,2.4310739598256523 2.1909243158289904,2.4257816804235874"/>
    <polyline points="2.1880273617712165,3.5704429355443663 2.191040711304526,3.5743700091134145"/>
    <polyline points="2.1941575234827564,2.4215680821735357 2.1966794254526936,2.418281475538495"/>
    <polyline points="2.1944808442481327,3.5788532776514694 2.1966923582833084,3.581735378854505"/>
    <polyline points="2.200029028581995,2.4139161877514415 2.2111124644191036,2.399471972950264"/>
    <polyline points="2.2028225199948483,3.589724361136603 2.211138330080334,3.6005617358357362"/>
    <polyline points="2.2129877248582877,3.6029719140347662 2.216789977059116,3.607927105576827"/>
    <polyline points="2.2133498441155095,2.396556162961228 2.216789977059116,2.392072894423173"/>
    <polyline points="2.2198033265924257,2.388145820854125 2.223321056519723,2.383561425958068"/>
    <polyline points="2.2205922292599447,3.612882297118888 2.2232046610441873,3.61628688450493"/>
    <polyline points="2.2453456670571748,2.3548583946787156 2.2549806258653966,2.342301871893561"/>
    <polyline points="2.2466906814411414,3.6468944621933064 2.2492125834110785,3.6501810688283465"/>
    <polyline points="2.251799149534091,3.653551947428388 2.2549806258653966,3.657698128106439"/>
    <polyline points="2.2633093687814974,3.6685523571985725 2.2662451213311163,3.6723783044096194"/>
    <polyline points="2.264292263908242,2.3301667089334117 2.2662192556698866,2.327655404376381"/>
    <polyline points="2.2707457463851584,2.3217563668263086 2.2872997695724386,2.300182743786043"/>
    <polyline points="2.2724011487038864,3.680400995477718 2.2872997695724386,3.699817256213957"/>
    <polyline points="2.28962767908315,2.2971489530460056 2.2928932188134534,2.2928932188134534"/>
    <polyline points="2.2898216715423763,3.703103862848997 2.2928932188134534,3.7071067811865466"/>
    <polyline points="2.2928932188134534,3.7071067811865466 2.2971489530460056,3.71037232091685"/>
    <polyline points="2.2928932188134534,3.7071067811865466 2.5,3.866025403784439"/>
    <polyline points="2.2928932188134534,2.2928932188134534 2.296896137151003,2.2898216715423763"/>
    <polyline points="2.2928932188134534,2.2928932188134534 2.5,2.133974596215561"/>
    <polyline points="2.300182743786043,3.7127002304275614 2.3217563668263086,3.7292542536148416"/>
    <polyline points="2.300182743786043,2.2872997695724386 2.319599004522282,2.2724011487038864"/>
    <polyline points="2.3276216955903806,2.2662451213311163 2.3314476428014275,2.2633093687814974"/>
    <polyline points="2.327655404376381,3.7337807443301134 2.3301667089334117,3.735707736091758"/>
    <polyline points="2.342301871893561,3.7450193741346034 2.3548583946787156,3.7546543329428252"/>
    <polyline points="2.342301871893561,2.2549806258653966 2.346448052571612,2.251799149534091"/>
    <polyline points="2.3498189311716535,2.2492125834110785 2.3531055378066936,2.2466906814411414"/>
    <polyline points="2.383561425958068,3.776678943480277 2.388145820854125,3.7801966734075743"/>
    <polyline points="2.38371311549507,2.2232046610441873 2.387117702881112,2.2205922292599447"/>
    <polyline points="2.392072894423173,3.783210022940884 2.396556162961228,3.7866501558844905"/>
    <polyline points="2.392072894423173,2.216789977059116 2.3970280859652338,2.2129877248582877"/>
    <polyline points="2.3994382641642638,2.211138330080334 2.410275638863397,2.2028225199948483"/>
    <polyline points="2.399471972950264,3.7888875355808964 2.4139161877514415,3.799970971418005"/>
    <polyline points="2.418264621145495,2.1966923582833084 2.4211467223485306,2.1944808442481327"/>
    <polyline points="2.418281475538495,3.8033205745473064 2.4215680821735357,3.8058424765172436"/>
    <polyline points="2.4256299908865855,2.191040711304526 2.4295570644556337,2.1880273617712165"/>
    <polyline points="2.4257816804235874,3.8090756841710096 2.4310739598256523,3.813136592984139"/>
    <polyline points="2.4341414593516904,2.184509631843919 2.454046497484935,2.16923595888753"/>
    <polyline points="2.441203450018777,3.820909224183792 2.442905743711798,3.8222154400759134"/>
    <polyline points="2.4490575971568735,3.8269359232504114 2.4534060305509273,3.8302725935490978"/>
    <polyline points="2.4754010134161977,2.1528500624982456 2.479446067736247,2.14974618315063"/>
    <polyline points="2.475889790813204,3.8475249895895915 2.4796146116662494,3.8503831451555204"/>
    <polyline points="2.483558539628298,3.853409427519445 2.486845146263338,3.8559313294893824"/>
    <polyline points="2.4837607923443006,2.1464353785131745 2.487536176376347,2.1435384244554"/>
    <polyline points="2.4900474809333777,2.1416114326937556 2.5,2.133974596215561"/>
    <polyline points="2.4901991704703796,3.8585049627817796 2.5,3.866025403784439"/>
    <polyline points="2.5,3.866025403784439 2.7411809548974793,3.965925826289068"/>
    <polyline points="2.5,2.133974596215561 2.7411809548974793,2.034074173710932"/>
    <polyline points="2.5193231323320777,3.8740293072639154 2.539401917883845,3.882346212555438"/>
    <polyline points="2.5243673629154637,2.123881304016709 2.539362663171134,2.1176700472789536"/>
    <polyline points="2.5595003307919684,3.8906712477641574 2.5796576257691584,3.8990206727244647"/>
    <polyline points="2.5595003307919684,2.1093287522358426 2.5729254425391916,2.1037678888737683"/>
    <polyline points="2.5821503000263184,2.0999468277916415 2.5862131627919256,2.098263934932066"/>
    <polyline points="2.5997167839645705,2.0926705519012083 2.6213853853811413,2.083695123316808"/>
    <polyline points="2.6012869724730177,3.907979841474473 2.6213853853811413,3.916304876683192"/>
    <polyline points="2.6336524831033845,3.9213860749307012 2.6564594711885787,3.9308330387124704"/>
    <polyline points="2.640306156907929,2.0758578831398498 2.660031650045296,2.067687316357855"/>
    <polyline points="2.6625439516588116,3.933353313043235 2.665016998559616,3.934377682609933"/>
    <polyline points="2.682053543876267,3.941434450736074 2.7017986643699894,3.9496131474352647"/>
    <polyline points="2.682053543876267,2.058565549263926 2.7017986643699894,2.0503868525647353"/>
    <polyline points="2.7202483793442434,3.9572552695995187 2.7411809548974793,3.965925826289068"/>
    <polyline points="2.7218578225654015,2.0420780771904083 2.7411809548974793,2.034074173710932"/>
    <polyline points="2.7411809548974793,3.965925826289068 3.0,4.0"/>
    <polyline points="2.7411809548974793,2.034074173710932 3.0,2.0"/>
    <polyline points="2.767056540583388,2.0306675882288454 2.7962705717973524,2.0268214880549307"/>
    <polyline points="2.7692681291035512,3.96962357292347 2.7962705717973524,3.9731785119450693"/>
    <polyline points="2.8232098262477208,3.9767251320766026 2.8425033032426676,3.9792651665101326"/>
    <polyline points="2.823230888995532,2.023272094960042 2.842524365990479,2.020732060526512"/>
    <polyline points="2.87167520896101,2.0168942792426634 2.8986776516548116,2.013339340221064"/>
    <polyline points="2.8716962717088212,3.9831084937206915 2.896445000386837,3.9863667256632653"/>
    <polyline points="2.925659031600802,2.0097871741628204 2.944910383100127,2.007252685656001"/>
    <polyline points="2.9256800943486128,3.9902155988005354 2.952661474294603,3.9937677648587795"/>
    <polyline points="2.971912825793928,2.0036977466344017 3.0,2.0"/>
    <polyline points="2.9719338885417392,3.9963050263289537 3.0,4.0"/>
    <polyline points="3.0,4.0 3.028087174206072,3.9963022533655983"/>
    <polyline points="3.0,4.0 3.2588190451025207,3.965925826289068"/>
    <polyline points="3.0,2.0 3.0280661114582608,2.0036949736710463"/>
    <polyline points="3.0,2.0 3.2588190451025207,2.034074173710932"/>
    <polyline points="3.047338525705397,2.0062322351412205 3.074319905651387,2.0097844011994646"/>
    <polyline points="3.055089616899873,3.992747314343999 3.0743409683991985,3.9902128258371796"/>
    <polyline points="3.1013223483451884,3.986660659778936 3.12832479103899,3.9831057207573366"/>
    <polyline points="3.103554999613163,2.0136332743367347 3.1283037282911788,2.0168915062793085"/>
    <polyline points="3.157475634009521,3.979267939473488 3.176769111004468,3.976727905039958"/>
    <polyline points="3.1574966967573324,2.0207348334898674 3.1767901737522792,2.0232748679233974"/>
    <polyline points="3.2037294282026476,2.0268214880549307 3.2307318708964488,2.03037642707653"/>
    <polyline points="3.2037294282026476,3.9731785119450693 3.232943459416612,3.9693324117711546"/>
    <polyline points="3.2588190451025207,3.965925826289068 3.2781421774345985,3.9579219228095917"/>
    <polyline points="3.2588190451025207,3.965925826289068 3.5,3.866025403784439"/>
    <polyline points="3.2588190451025207,2.034074173710932 3.2797516206557566,2.0427447304004813"/>
    <polyline points="3.2588190451025207,2.034074173710932 3.5,2.133974596215561"/>
    <polyline points="3.2982013356300106,3.9496131474352647 3.317946456123733,3.941434450736074"/>
    <polyline points="3.2982013356300106,2.0503868525647353 3.317946456123733,2.058565549263926"/>
    <polyline points="3.334983001440384,2.065622317390067 3.3374560483411884,2.066646686956765"/>
    <polyline points="3.339968349954704,3.932312683642145 3.359693843092071,3.9241421168601502"/>
    <polyline points="3.3435405288114213,2.0691669612875296 3.3663475168966155,2.0786139250692988"/>
    <polyline points="3.3786146146188587,3.916304876683192 3.4002832160354295,3.9073294480987917"/>
    <polyline points="3.3786146146188587,2.083695123316808 3.3987130275269823,2.092020158525527"/>
    <polyline points="3.4137868372080744,3.901736065067934 3.4178496999736816,3.9000531722083585"/>
    <polyline points="3.4203423742308416,2.1009793272755353 3.4404996692080316,2.1093287522358426"/>
    <polyline points="3.4270745574608084,3.8962321111262317 3.4404996692080316,3.8906712477641574"/>
    <polyline points="3.460598082116155,2.117653787444562 3.4806768676679223,2.1259706927360846"/>
    <polyline points="3.460637336828866,3.8823299527210464 3.4756326370845363,3.876118695983291"/>
    <polyline points="3.5,3.866025403784439 3.5099525190666223,3.8583885673062444"/>
    <polyline points="3.5,3.866025403784439 3.7071067811865466,3.7071067811865466"/>
    <polyline points="3.5,2.133974596215561 3.5098008295296204,2.1414950372182204"/>
    <polyline points="3.5,2.133974596215561 3.7071067811865466,2.2928932188134534"/>
    <polyline points="3.512463823623653,3.8564615755446 3.5162392076556994,3.8535646214868255"/>
    <polyline points="3.513154853736662,2.1440686705106176 3.516441460371702,2.146590572480555"/>
    <polyline points="3.5203853883337506,2.1496168548444796 3.524110209186796,2.1524750104104085"/>
    <polyline points="3.520553932263753,3.85025381684937 3.5245989865838023,3.8471499375017544"/>
    <polyline points="3.545953502515065,3.83076404111247 3.5658585406483096,3.815490368156081"/>
    <polyline points="3.5465939694490727,2.1697274064509022 3.5509424028431265,2.1730640767495886"/>
    <polyline points="3.557094256288202,2.1777845599240866 3.558796549981223,2.179090775816208"/>
    <polyline points="3.5689260401743477,2.186863407015861 3.5742183195764126,2.1909243158289904"/>
    <polyline points="3.5704429355443663,3.8119726382287835 3.5743700091134145,3.808959288695474"/>
    <polyline points="3.5784319178264643,2.1941575234827564 3.581718524461505,2.1966794254526936"/>
    <polyline points="3.5788532776514694,3.8055191557518673 3.581735378854505,3.8033076417166916"/>
    <polyline points="3.5860838122485585,2.200029028581995 3.600528027049736,2.2111124644191036"/>
    <polyline points="3.589724361136603,3.7971774800051517 3.6005617358357362,3.788861669919666"/>
    <polyline points="3.6029719140347662,3.7870122751417123 3.607927105576827,3.783210022940884"/>
    <polyline points="3.603443837038772,2.2133498441155095 3.607927105576827,2.216789977059116"/>
    <polyline points="3.611854179145875,2.2198033265924257 3.616438574041932,2.223321056519723"/>
    <polyline points="3.612882297118888,3.7794077707400553 3.61628688450493,3.7767953389558127"/>
    <polyline points="3.6451416053212844,2.2453456670571748 3.657698128106439,2.2549806258653966"/>
    <polyline points="3.6468944621933064,3.7533093185588586 3.6501810688283465,3.7507874165889215"/>
    <polyline points="3.653551947428388,3.748200850465909 3.657698128106439,3.7450193741346034"/>
    <polyline points="3.6685523571985725,3.7366906312185026 3.6723783044096194,3.7337548786688837"/>
    <polyline points="3.6698332910665883,2.264292263908242 3.672344595623619,2.2662192556698866"/>
    <polyline points="3.6782436331736914,2.2707457463851584 3.699817256213957,2.2872997695724386"/>
    <polyline points="3.680400995477718,3.7275988512961136 3.699817256213957,3.7127002304275614"/>
    <polyline points="3.7028510469539944,2.28962767908315 3.7071067811865466,2.2928932188134534"/>
    <polyline points="3.703103862848997,3.7101783284576237 3.7071067811865466,3.7071067811865466"/>
    <polyline points="3.7071067811865466,3.7071067811865466 3.71037232091685,3.7028510469539944"/>
    <polyline points="3.7071067811865466,3.7071067811865466 3.866025403784439,3.5"/>
    <polyline points="3.7071067811865466,2.2928932188134534 3.7101783284576237,2.296896137151003"/>
    <polyline points="3.7071067811865466,2.2928932188134534 3.866025403784439,2.5"/>
    <polyline points="3.7127002304275614,3.699817256213957 3.7292542536148416,3.6782436331736914"/>
    <polyline points="3.7127002304275614,2.300182743786043 3.7275988512961136,2.319599004522282"/>
    <polyline points="3.7337548786688837,2.3276216955903806 3.7366906312185026,2.3314476428014275"/>
    <polyline points="3.7337807443301134,3.672344595623619 3.735707736091758,3.6698332910665883"/>
    <polyline points="3.7450193741346034,3.657698128106439 3.7546543329428252,3.6451416053212844"/>
    <polyline points="3.7450193741346034,2.342301871893561 3.748200850465909,2.346448052571612"/>
    <polyline points="3.7507874165889215,2.3498189311716535 3.7533093185588586,2.3531055378066936"/>
    <polyline points="3.776678943480277,3.616438574041932 3.7801966734075743,3.611854179145875"/>
    <polyline points="3.7767953389558127,2.38371311549507 3.7794077707400553,2.387117702881112"/>
    <polyline points="3.783210022940884,3.607927105576827 3.7866501558844905,3.603443837038772"/>
    <polyline points="3.783210022940884,2.392072894423173 3.7870122751417123,2.3970280859652338"/>
    <polyline points="3.788861669919666,2.3994382641642638 3.7971774800051517,2.410275638863397"/>
    <polyline points="3.7888875355808964,3.600528027049736 3.799970971418005,3.5860838122485585"/>
    <polyline points="3.8033076417166916,2.418264621145495 3.8055191557518673,2.4211467223485306"/>
    <polyline points="3.8033205745473064,3.581718524461505 3.8058424765172436,3.5784319178264643"/>
    <polyline points="3.808959288695474,2.4256299908865855 3.8119726382287835,2.4295570644556337"/>
    <polyline points="3.8090756841710096,3.5742183195764126 3.813136592984139,3.5689260401743477"/>
    <polyline points="3.815490368156081,2.4341414593516904 3.83076404111247,2.454046497484935"/>
    <polyline points="3.820909224183792,3.558796549981223 3.8222154400759134,3.557094256288202"/>
    <polyline points="3.8269359232504114,3.5509424028431265 3.8302725935490978,3.5465939694490727"/>
    <polyline points="3.8471499375017544,2.4754010134161977 3.85025381684937,2.479446067736247"/>
    <polyline points="3.8475249895895915,3.524110209186796 3.8503831451555204,3.5203853883337506"/>
    <polyline points="3.853409427519445,3.516441460371702 3.8559313294893824,3.513154853736662"/>
    <polyline points="3.8535646214868255,2.4837607923443006 3.8564615755446,2.487536176376347"/>
    <polyline points="3.8583885673062444,2.4900474809333777 3.866025403784439,2.5"/>
    <polyline points="3.8585049627817796,3.5098008295296204 3.866025403784439,3.5"/>
    <polyline points="3.866025403784439,3.5 3.965925826289068,3.2588190451025207"/>
    <polyline points="3.866025403784439,2.5 3.965925826289068,2.7411809548974793"/>
    <polyline points="3.8740293072639154,3.4806768676679223 3.882346212555438,3.460598082116155"/>
    <polyline points="3.876118695983291,2.5243673629154637 3.8823299527210464,2.539362663171134"/>
    <polyline points="3.8906712477641574,3.4404996692080316 3.8990206727244647,3.4203423742308416"/>
    <polyline points="3.8906712477641574,2.5595003307919684 3.8962321111262317,2.5729254425391916"/>
    <polyline points="3.9000531722083585,2.5821503000263184 3.901736065067934,2.5862131627919256"/>
    <polyline points="3.9073294480987917,2.5997167839645705 3.916304876683192,2.6213853853811413"/>
    <polyline points="3.907979841474473,3.3987130275269823 3.916304876683192,3.3786146146188587"/>
    <polyline points="3.9213860749307012,3.3663475168966155 3.9308330387124704,3.3435405288114213"/>
    <polyline points="3.9241421168601502,2.640306156907929 3.932312683642145,2.660031650045296"/>
    <polyline points="3.933353313043235,3.3374560483411884 3.934377682609933,3.334983001440384"/>
    <polyline points="3.941434450736074,3.317946456123733 3.9496131474352647,3.2982013356300106"/>
    <polyline points="3.941434450736074,2.682053543876267 3.9496131474352647,2.7017986643699894"/>
    <polyline points="3.9572552695995187,3.2797516206557566 3.965925826289068,3.2588190451025207"/>
    <polyline points="3.9579219228095917,2.7218578225654015 3.965925826289068,2.7411809548974793"/>
    <polyline points="3.965925826289068,3.2588190451025207 4.0,3.0"/>
    <polyline points="3.965925826289068,2.7411809548974793 4.0,3.0"/>
    <polyline points="3.9693324117711546,3.232943459416612 3.9731785119450693,3.2037294282026476"/>
    <polyline points="3.9693324117711546,2.767056540583388 3.9731785119450693,2.7962705717973524"/>
    <polyline points="3.976727905039958,3.176769111004468 3.979267939473488,3.157475634009521"/>
    <polyline points="3.976727905039958,2.823230888995532 3.979267939473488,2.842524365990479"/>
    <polyline points="3.9831057207573366,3.12832479103899 3.986660659778936,3.1013223483451884"/>
    <polyline points="3.9831057207573366,2.87167520896101 3.986660659778936,2.8986776516548116"/>
    <polyline points="3.9902128258371796,3.0743409683991985 3.992747314343999,3.055089616899873"/>
    <polyline points="3.9902128258371796,2.925659031600802 3.992747314343999,2.944910383100127"/>
    <polyline points="3.9963022533655983,3.028087174206072 4.0,3.0"/>
    <polyline points="3.9963022533655983,2.971912825793928 4.0,3.0"/>
  </g>
</svg>
